<svg xmlns="http://www.w3.org/2000/svg" width="288" height="288" version="1.0" viewBox="0 0 80 80"><g fill="#fff" class="color000 svgShape" transform="matrix(.1 0 0 -.1 0 80)"><path d="M170 621c-76-24-118-61-149-131-67-148 40-313 204-314 191-1 295 221 173 369-52 63-159 99-228 76zM532 587c-39-42-55-96-55-187 0-128 42-210 109-210 38 0 75 38 95 97 17 49 17 177 0 226-31 90-101 125-149 74zM738 563c-7-17-12-80-12-163 0-136 12-196 37-188 47 16 47 360 0 376-7 2-18-9-25-25z" class="color000 svgShape"/></g></svg>